<svg width="203" height="164" viewBox="0 0 203 164" fill="none" xmlns="http://www.w3.org/2000/svg">
<path d="M91.3714 25.7649L102.8 33.8506L12.126 162.019L0.696952 153.933L91.3714 25.7649Z" fill="#BF4E30" stroke="#BF4E30"/>
<path d="M107.881 0.697388L120.943 9.9381L104.194 33.6125L91.1325 24.3718L107.881 0.697388Z" fill="#BF4E30" stroke="#BF4E30"/>
<path d="M141.631 124.407C147.851 115.615 160.02 113.53 168.812 119.75C177.604 125.97 179.689 138.139 173.469 146.931C167.249 155.723 155.08 157.808 146.288 151.588C137.496 145.368 135.411 133.199 141.631 124.407Z" fill="#BF4E30" stroke="#BF4E30"/>
<path d="M144.404 123.084L141.306 127.463L138.114 121.919L144.404 123.084Z" fill="#BF4E30" stroke="#BF4E30"/>
<path d="M170.135 122.524L165.757 119.426L171.3 116.234L170.135 122.524Z" fill="#BF4E30" stroke="#BF4E30"/>
<path d="M148.765 152.728L144.387 149.631L143.222 155.921L148.765 152.728Z" fill="#BF4E30" stroke="#BF4E30"/>
<path d="M173.793 143.876L170.696 148.254L176.986 149.419L173.793 143.876Z" fill="#BF4E30" stroke="#BF4E30"/>
<path d="M157.251 137.321C161.262 109.518 158.468 45.528 115.198 11.998" stroke="#BF4E30"/>
</svg>
