<svg width="203" height="164" viewBox="0 0 203 164" fill="none" xmlns="http://www.w3.org/2000/svg">
<path d="M0 154.054L91.252 25.069L103.497 33.7321L12.2454 162.717L0 154.054Z" fill="black"/>
<path d="M90.4355 24.4912L107.762 0.000436068L121.64 9.81869L104.314 34.3095L90.4355 24.4912Z" fill="black"/>
<path d="M169.101 119.343C178.118 125.722 180.257 138.204 173.877 147.221C167.498 156.238 155.016 158.377 145.999 151.997C136.982 145.618 134.843 133.136 141.223 124.119C147.602 115.102 160.084 112.963 169.101 119.343Z" fill="black"/>
<path d="M137.141 121.231L145.264 122.734L141.263 128.39L137.141 121.231Z" fill="black"/>
<path d="M171.989 115.26L170.485 123.384L164.829 119.382L171.989 115.26Z" fill="black"/>
<path d="M142.534 156.895L149.693 152.773L144.037 148.772L142.534 156.895Z" fill="black"/>
<path d="M177.959 150.109L173.837 142.949L169.836 148.605L177.959 150.109Z" fill="black"/>
<path d="M157.251 137.321C161.262 109.518 158.468 45.528 115.198 11.998" stroke="black"/>
</svg>
